<svg xmlns="http://www.w3.org/2000/svg" width="32" height="32" fill-rule="evenodd" stroke-linejoin="round" stroke-miterlimit="1.414" clip-rule="evenodd" viewBox="0 0 50 50"><path fill="none" d="m.00045 0h50v50h-50z"/><g fill-rule="nonzero"><path fill="#333f4c" d="m44.148 13.093-10.673-12.717c-.242-.288-.615-.415-.979-.365h-22.783c-2.337 0-4.24 1.901-4.24 4.239v41.511c0 2.336 1.902 4.239 4.24 4.239h30.559c2.338 0 4.238-1.903 4.238-4.239v-31.78c.002-.028.018-.052.018-.081-.001-.323-.147-.612-.38-.807z" transform="translate(-.00068 -.000361)"/><path fill="#fec136" d="m76.4 35.3c-.5-.9-1.5-1.5-2.6-1.5h-15.3l9.2-28.1c.3-.9.1-1.9-.4-2.7s-1.5-1.2-2.4-1.2h-24.2c-1.3 0-2.4.8-2.8 2.1l-16.5 50c-.3.9-.1 1.9.4 2.7.6.8 1.5 1.2 2.4 1.2h18l-2.3 35.2c-.1 1.4.8 2.7 2.2 3.1.3.1.6.1.8.1 1.1 0 2.1-.6 2.6-1.6l31-56.4c.5-.9.5-2-.1-2.9z" transform="matrix(.31601 0 0 .31601 9.496 9.51534)"/></g></svg>