<svg xmlns="http://www.w3.org/2000/svg" width="32" height="32" fill="none" viewBox="0 0 32 32"><path fill="#131415" d="M25.2839 18.0397C28.708 18.0397 31.4839 20.8007 31.4839 24.2065C31.4839 27.6123 28.708 30.3732 25.2839 30.3732L0.483887 30.3732L0.483887 18.0397L25.2839 18.0397Z"/><path fill="#131415" d="M8.75057 1.59497C12.1747 1.59497 14.9506 4.35593 14.9506 7.76174C14.9506 11.1676 12.1747 13.9285 8.75057 13.9285H0.483905L0.483905 1.59497L8.75057 1.59497Z"/><path fill="url(#paint0_linear)" d="M31.7787 7.63031C31.7787 11.0972 28.9531 13.9076 25.4676 13.9076C21.9821 13.9076 19.1565 11.0972 19.1565 7.63031C19.1565 4.16346 21.9821 1.35303 25.4676 1.35303C28.9531 1.35303 31.7787 4.16346 31.7787 7.63031Z"/><defs><linearGradient id="paint0_linear" x1="19.194" x2="32.045" y1="7.473" y2="7.473" gradientUnits="userSpaceOnUse"><stop stop-color="#19AEFF"/><stop offset="1" stop-color="#015CD5"/></linearGradient></defs></svg>