<svg xmlns="http://www.w3.org/2000/svg" xmlns:xlink="http://www.w3.org/1999/xlink" width="32" height="32" version="1.1" viewBox="0 0 32 32"><title>Group 3</title><desc>Created with Sketch.</desc><defs><linearGradient id="linearGradient-1" x1=".045%" x2="99.985%" y1="50.012%" y2="50.012%"><stop offset="0%" stop-color="#007BC3"/><stop offset="22%" stop-color="#0275B9"/><stop offset="60%" stop-color="#0966A0"/><stop offset="100%" stop-color="#12517D"/></linearGradient><radialGradient id="radialGradient-2" cx="28.144%" cy="33.682%" r="55.671%" fx="28.144%" fy="33.682%" gradientTransform="translate(0.281437,0.336823),scale(1.000000,0.819938),translate(-0.281437,-0.336823)"><stop offset="0%" stop-color="#B7D433"/><stop offset="12%" stop-color="#B1D234"/><stop offset="29%" stop-color="#A0CC37"/><stop offset="47%" stop-color="#85C23C"/><stop offset="67%" stop-color="#5FB543"/><stop offset="82%" stop-color="#3EA949"/><stop offset="100%" stop-color="#49A64B"/></radialGradient><linearGradient id="linearGradient-3" x1="-.01%" x2="99.982%" y1="50.011%" y2="50.011%"><stop offset="0%" stop-color="#338947"/><stop offset="41%" stop-color="#1A622A"/><stop offset="79%" stop-color="#074414"/><stop offset="100%" stop-color="#00390C"/></linearGradient><radialGradient id="radialGradient-4" cx="69.745%" cy="60.414%" r="51.485%" fx="69.745%" fy="60.414%" gradientTransform="translate(0.697447,0.604142),scale(0.906734,1.000000),translate(-0.697447,-0.604142)"><stop offset="0%" stop-color="#FFC60B"/><stop offset="15%" stop-color="#FCBC0E"/><stop offset="39%" stop-color="#F5A315"/><stop offset="70%" stop-color="#E97921"/><stop offset="90%" stop-color="#E05A2A"/><stop offset="100%" stop-color="#DD5330"/></radialGradient><linearGradient id="linearGradient-5" x1="87.059%" x2="36.611%" y1="27.791%" y2="57.174%"><stop offset="0%" stop-color="#CA2022"/><stop offset="58%" stop-color="#C7371F"/><stop offset="100%" stop-color="#C6421D"/></linearGradient><radialGradient id="radialGradient-6" cx="69.394%" cy="32.977%" r="50.891%" fx="69.394%" fy="32.977%" gradientTransform="translate(0.693935,0.329768),scale(0.959792,1.000000),translate(-0.693935,-0.329768)"><stop offset="0%" stop-color="#C7EAFB"/><stop offset="11%" stop-color="#BDE5FA"/><stop offset="29%" stop-color="#A4D9F7"/><stop offset="52%" stop-color="#79C5F2"/><stop offset="80%" stop-color="#40AAEB"/><stop offset="100%" stop-color="#1093E5"/></radialGradient></defs><g id="Page-1" fill="none" fill-rule="evenodd" stroke="none" stroke-width="1"><g id="Home-Page-Design-for-Dokan" fill-rule="nonzero" transform="translate(-388.000000, -33.000000)"><g id="Heading" transform="translate(-543.000000, 0.000000)"><g id="Menu" transform="translate(931.000000, 28.000000)"><g id="Menu-Color"><g id="Group-3" transform="translate(0.000000, 5.000000)"><g id="Logo-icon"><path id="Shape" fill="url(#linearGradient-1)" d="M6.25668449,8.5985 C6.25668449,8.5985 5.27486631,2.80977778 10.8032086,2.11216667 C10.8032086,2.11216667 15.4074866,1.48705556 17.1304813,7.08244444 C17.128877,7.08888889 10.2144385,7.58188889 6.25668449,8.5985 Z"/><path id="Shape" fill="url(#radialGradient-2)" d="M17.128877,7.08888889 C17.128877,7.08888889 1.98930481,7.48844444 0.670588235,12.3217778 C0.670588235,12.3217778 -2.62139037,18.937 7.50962567,27.6273333 C7.50962567,27.6273333 12.0192513,30.3742778 15.4122995,26.6091111 C15.4122995,26.6091111 9.58716578,20.9122222 7.66203209,17.3001111 C7.66203209,17.3001111 12.928877,11.7240556 17.7930481,9.38311111 C17.6382237,8.60049977 17.4159981,7.83287377 17.128877,7.08888889 Z"/><path id="Shape" fill="url(#linearGradient-3)" d="M7.61229947,17.3838889 C7.61229947,17.3838889 3.50855615,21.6565556 6.92887701,25.4732778 C6.92887701,25.4732778 10.2721925,28.7551111 14.3759358,25.9308333 C14.3743316,25.9388889 9.51176471,20.2081667 7.61229947,17.3838889 Z"/><path id="Shape" fill="url(#radialGradient-4)" d="M9.5631016,15.4521667 C9.5631016,15.4521667 16.8818182,20.0035556 21.1379679,19.9020556 C23.1330177,16.3980428 24.5206822,12.579059 25.2417112,8.60816667 C25.2417112,8.60816667 30.1042781,10.1355 29.9534759,15.4247778 C29.9534759,15.4247778 30.5117647,19.4960556 25.4951872,25.5989444 C25.4951872,25.5989444 22.2016043,29.4656111 18.9096257,28.8050556 C18.9096257,28.8050556 12.4764706,25.8277222 7.61390374,17.3838889 C8.22693035,16.7036666 8.87769786,16.0587336 9.5631016,15.4521667 Z"/><path id="Shape" fill="url(#linearGradient-5)" d="M25.0893048,9.90511111 C25.0893048,9.90511111 29.197861,11.5838889 28.8128342,15.7888889 C28.8128342,15.7888889 27.9513369,21.5502222 21.1122995,20.1002222 C21.1122995,20.0921667 24.2534759,13.1096111 25.0893048,9.90511111 Z"/><path id="Shape" fill="url(#radialGradient-6)" d="M4.8657754,9.03833333 C4.8657754,9.03833333 3.71069519,3.36883333 9.03048128,1.12777778 C9.03048128,1.12777778 10.5513369,0.212666667 16.4262032,0.161111111 C16.4262032,0.161111111 22.9620321,-0.0934444444 25.1903743,4.12766667 C25.1903743,4.12766667 27.2663102,8.87238889 21.1122995,20.0905556 L20.4032086,19.952 C20.4032086,19.952 19.9026738,19.8617778 18.4780749,19.5202222 C18.4780749,19.5202222 19.0106952,8.75961111 16.0090909,4.9445 C16.0090909,4.9445 13.9235294,1.47255556 10.0058824,2.27488889 C10.0058824,2.27488889 5.69197861,3.56377778 6.2631016,8.5985 C6.25668449,8.5985 6.08181818,8.66938889 4.8657754,9.03833333 Z"/></g></g></g></g></g></g></g></svg>