<svg xmlns="http://www.w3.org/2000/svg" width="32" height="32" fill="none" viewBox="0 0 32 32"><path fill="#000" d="M15.316 2.04004L8.43604 7.54404V29.56L15.316 21.304V17.176L18.068 14.424H15.316V2.04004Z"/><path fill="#000" d="M20.8199 10.296C23.0997 10.296 24.9479 8.44787 24.9479 6.16804C24.9479 3.88821 23.0997 2.04004 20.8199 2.04004C18.5401 2.04004 16.6919 3.88821 16.6919 6.16804C16.6919 8.44787 18.5401 10.296 20.8199 10.296Z"/><path fill="#000" d="M15.316 2.04004L8.43604 7.54404V29.56L15.316 21.304V17.176L18.068 14.424H15.316V2.04004Z"/><path fill="#000" d="M20.8199 10.296C23.0997 10.296 24.9479 8.44787 24.9479 6.16804C24.9479 3.88821 23.0997 2.04004 20.8199 2.04004C18.5401 2.04004 16.6919 3.88821 16.6919 6.16804C16.6919 8.44787 18.5401 10.296 20.8199 10.296Z"/></svg>