<svg xmlns="http://www.w3.org/2000/svg" width="32" height="32" fill="none" viewBox="0 0 32 32"><g clip-path="url(#clip0)"><path fill="#00AF54" d="M12.5515 19.3553L7.0835 20.7534L12.9864 27.0291L12.5515 19.3553Z"/><path fill="#00AF54" d="M5.8097 13.7631C5.8097 13.7631 4.75339 13.4835 3.82135 13.5456L0.310669 13.732L6.15145 19.7592L5.8097 13.7631Z"/><path fill="#00AF54" d="M6.46204 13.9806L6.80378 20.2252L12.0232 18.9515L6.46204 13.9806Z"/><path fill="#00AF54" d="M21.7786 9.25825L17.864 13.7942C18.9514 14.0117 23.3941 15.1922 23.3941 15.1922L21.7786 9.25825Z"/><path fill="#00AF54" d="M29.8253 7.82913L32.0311 5.28155L28.5204 5.49903C26.1592 5.6233 23.9224 6.4932 22.9592 7.89126L22.5243 8.41942L29.8253 7.82913Z"/><path fill="#00AF54" d="M22.3689 8.8233L23.9223 14.633L29.3903 8.32621L22.3689 8.8233Z"/><path fill="#00AF54" d="M17.6776 14.3534L18.0815 21.3748L22.9902 15.7204C22.2446 15.5961 17.6776 14.3534 17.6776 14.3534Z"/><path fill="#00AF54" d="M17.1183 14.7883L13.6077 18.8583L17.5222 21.934L17.1183 14.7883Z"/><path fill="#00AF54" d="M13.2039 19.3243L13.6699 26.9981L17.1806 22.4311L13.2039 19.3243Z"/></g><defs><clipPath id="clip0"><rect width="32" height="32" fill="#fff"/></clipPath></defs></svg>