<svg xmlns="http://www.w3.org/2000/svg" width="32" height="32" fill="none" viewBox="0 0 32 32"><path fill="#C6984F" d="M10.667 21.3334L16 32.0001L18.2292 24.8007L18.286 18.2859L16.32 15.1318L14.2226 14.2227L11.4461 17.7175L10.667 21.3334Z"/><path fill="#8E57AB" d="M0 0L8.45979 9.64809L14.2223 14.2224L16.1454 12.4339L16.0001 10.6667L10.6665 0H0Z"/><path fill="#DB3569" d="M21.3329 0L17.8145 11.1391L18.2852 18.2857L19.8128 21.0014L21.3331 21.3334L31.9996 0H21.3329Z"/><path fill="#F3722A" d="M21.3337 0L14.2227 14.2224L18.286 18.2857L21.3337 0Z"/><path fill="#2A763B" d="M18.2855 18.2852L16 31.9996L21.3334 21.3329L18.2855 18.2852Z"/><path fill="#6C3877" d="M0 0L10.6669 21.3334L14.2223 14.2224L0 0Z"/></svg>